<svg xmlns="http://www.w3.org/2000/svg" viewBox="0 0 900 900" width="900" height="900" role="img">
<defs><filter id="g"><feTurbulence type="fractalNoise" baseFrequency="0.9" numOctaves="3"/><feColorMatrix type="saturate" values="0"/></filter></defs>
<rect width="900" height="900" fill="#E4ECE6"/>
<rect x="42" y="333" width="21" height="21" rx="4" fill="#A8452E" opacity="0.4" transform="rotate(45 42 333)"/><rect x="339" y="800" width="30" height="30" rx="4" fill="#111111" opacity="0.4" transform="rotate(28 339 800)"/><rect x="148" y="749" width="25" height="25" rx="4" fill="#A8452E" opacity="0.4" transform="rotate(2 148 749)"/><circle cx="876" cy="887" r="14" fill="#9DAA7A" opacity="0.45"/><rect x="266" y="91" width="25" height="25" rx="4" fill="#D9683E" opacity="0.4" transform="rotate(20 266 91)"/>
<path d="M 286.9 342.7
      c 52.0 81.4, -52.0 146.5, 0 325.6"
      stroke="#2F5A4C" stroke-width="36.1" fill="none" stroke-linecap="round"/><path d="M 329.6 342.7
      c 60.0 128.7, -60.0 231.6, 0 514.7"
      stroke="#2F5A4C" stroke-width="33.8" fill="none" stroke-linecap="round"/><path d="M 372.3 342.7
      c 39.1 86.7, -39.1 156.0, 0 346.7"
      stroke="#2F5A4C" stroke-width="45.0" fill="none" stroke-linecap="round"/><path d="M 415.1 342.7
      c 41.3 119.5, -41.3 215.1, 0 478.0"
      stroke="#2F5A4C" stroke-width="44.7" fill="none" stroke-linecap="round"/><path d="M 457.8 342.7
      c 47.6 120.8, -47.6 217.5, 0 483.3"
      stroke="#2F5A4C" stroke-width="25.3" fill="none" stroke-linecap="round"/><path d="M 500.5 342.7
      c 30.8 78.3, -30.8 141.0, 0 313.3"
      stroke="#2F5A4C" stroke-width="45.1" fill="none" stroke-linecap="round"/><path d="M 543.3 342.7
      c 51.8 130.5, -51.8 234.9, 0 522.0"
      stroke="#2F5A4C" stroke-width="34.9" fill="none" stroke-linecap="round"/><path d="M 586.0 342.7
      c 37.7 129.2, -37.7 232.5, 0 516.8"
      stroke="#2F5A4C" stroke-width="39.3" fill="none" stroke-linecap="round"/><path d="M 628.7 342.7
      c 38.3 80.6, -38.3 145.1, 0 322.4"
      stroke="#2F5A4C" stroke-width="27.0" fill="none" stroke-linecap="round"/><path d="M 671.5 342.7
      c 54.3 96.1, -54.3 173.0, 0 384.4"
      stroke="#2F5A4C" stroke-width="30.7" fill="none" stroke-linecap="round"/>
<rect x="399.2" y="504.2" width="160.0" height="169.2" fill="#8D5524"/>
<ellipse cx="479.2" cy="419.6" rx="153.8" ry="178.4" fill="#8D5524"/>
<path d="M 325.3 381.1 a 153.8 169.2 0 0 1 307.7 0 Z" fill="#2F5A4C"/>
<circle cx="423.8" cy="427.3" r="11.5" fill="#241A16"/>
<circle cx="534.6" cy="427.3" r="11.5" fill="#241A16"/>
<path d="M 442.3 490.3 q 36.9 30.8, 73.8 0"
  stroke="#241A16" stroke-width="10.8" fill="none" stroke-linecap="round"/>
<rect width="900" height="900" filter="url(#g)" opacity="0.13" style="mix-blend-mode:multiply"/>
</svg>