<svg xmlns="http://www.w3.org/2000/svg" viewBox="0 0 1200 900" width="1200" height="900" role="img">
<defs><filter id="g"><feTurbulence type="fractalNoise" baseFrequency="0.9" numOctaves="3"/><feColorMatrix type="saturate" values="0"/></filter></defs>
<rect width="1200" height="900" fill="#F3E4D4"/>
<circle cx="288" cy="543" r="15" fill="#2F5A4C" opacity="0.45"/><path d="M 1095 110 l 15 0" stroke="#4F6E8A" stroke-width="5" stroke-linecap="round" opacity="0.5"/><rect x="885" y="893" width="12" height="12" rx="4" fill="#8A5A6B" opacity="0.4" transform="rotate(58 885 893)"/><rect x="596" y="600" width="39" height="39" rx="4" fill="#A8452E" opacity="0.4" transform="rotate(43 596 600)"/>
<path d="M 439.54295005160384 489.17334206518717 a 173.10775587824173 180.97629023634363 0 0 1 346.21551175648347 0 Z" fill="#C8401F"/><circle cx="619.8" cy="252.4" r="101.8" fill="#C8401F"/><circle cx="556.8" cy="291.8" r="53.5" fill="#C8401F"/>
<rect x="530.8" y="528.5" width="163.7" height="173.1" fill="#F7DCC4"/>
<ellipse cx="612.7" cy="442.0" rx="157.4" ry="182.5" fill="#F7DCC4"/>

<circle cx="556.0" cy="449.8" r="11.8" fill="#241A16"/>
<circle cx="669.3" cy="449.8" r="11.8" fill="#241A16"/>
<path d="M 574.9 514.4 q 37.8 31.5, 75.5 0"
  stroke="#241A16" stroke-width="11.0" fill="none" stroke-linecap="round"/>
<rect width="1200" height="900" filter="url(#g)" opacity="0.13" style="mix-blend-mode:multiply"/>
</svg>