<svg xmlns="http://www.w3.org/2000/svg" viewBox="0 0 900 1100" width="900" height="1100" role="img">
<defs><filter id="g"><feTurbulence type="fractalNoise" baseFrequency="0.9" numOctaves="3"/><feColorMatrix type="saturate" values="0"/></filter></defs>
<rect width="900" height="1100" fill="#F3E4D4"/>
<rect x="200" y="617" width="13" height="13" rx="4" fill="#EDAE3A" opacity="0.4" transform="rotate(0 200 617)"/><rect x="538" y="449" width="20" height="20" rx="4" fill="#C8401F" opacity="0.4" transform="rotate(30 538 449)"/><rect x="529" y="858" width="34" height="34" rx="4" fill="#EDAE3A" opacity="0.4" transform="rotate(21 529 858)"/><rect x="199" y="754" width="36" height="36" rx="4" fill="#4F6E8A" opacity="0.4" transform="rotate(42 199 754)"/><rect x="772" y="209" width="22" height="22" rx="4" fill="#111111" opacity="0.4" transform="rotate(52 772 209)"/>
<path d="M 199.7 431.7
      c 56.7 141.0, -56.7 253.8, 0 564.0"
      stroke="#8A5A6B" stroke-width="29.2" fill="none" stroke-linecap="round"/><path d="M 246.1 431.7
      c 64.3 88.6, -64.3 159.5, 0 354.4"
      stroke="#8A5A6B" stroke-width="39.8" fill="none" stroke-linecap="round"/><path d="M 292.6 431.7
      c 60.2 122.2, -60.2 220.0, 0 488.9"
      stroke="#8A5A6B" stroke-width="33.5" fill="none" stroke-linecap="round"/><path d="M 339.1 431.7
      c 66.4 92.3, -66.4 166.2, 0 369.4"
      stroke="#8A5A6B" stroke-width="43.6" fill="none" stroke-linecap="round"/><path d="M 385.5 431.7
      c 45.0 105.9, -45.0 190.7, 0 423.8"
      stroke="#8A5A6B" stroke-width="46.7" fill="none" stroke-linecap="round"/><path d="M 432.0 431.7
      c 62.0 123.6, -62.0 222.5, 0 494.5"
      stroke="#8A5A6B" stroke-width="45.9" fill="none" stroke-linecap="round"/><path d="M 478.5 431.7
      c 67.0 138.6, -67.0 249.6, 0 554.6"
      stroke="#8A5A6B" stroke-width="45.0" fill="none" stroke-linecap="round"/><path d="M 524.9 431.7
      c 66.7 140.5, -66.7 253.0, 0 562.2"
      stroke="#8A5A6B" stroke-width="36.3" fill="none" stroke-linecap="round"/><path d="M 571.4 431.7
      c 31.9 127.1, -31.9 228.7, 0 508.3"
      stroke="#8A5A6B" stroke-width="30.1" fill="none" stroke-linecap="round"/><path d="M 617.8 431.7
      c 59.5 136.3, -59.5 245.3, 0 545.1"
      stroke="#8A5A6B" stroke-width="45.5" fill="none" stroke-linecap="round"/>
<rect x="321.8" y="607.3" width="174.0" height="184.0" fill="#4A2C17"/>
<ellipse cx="408.8" cy="515.3" rx="167.3" ry="194.0" fill="#4A2C17"/>
<path d="M 241.5 473.5 a 167.3 184.0 0 0 1 334.5 0 Z" fill="#8A5A6B"/>
<circle cx="348.5" cy="523.7" r="12.5" fill="#241A16"/>
<circle cx="469.0" cy="523.7" r="12.5" fill="#241A16"/>
<path d="M 368.6 592.3 q 40.1 33.5, 80.3 0"
  stroke="#241A16" stroke-width="11.7" fill="none" stroke-linecap="round"/>
<rect width="900" height="1100" filter="url(#g)" opacity="0.13" style="mix-blend-mode:multiply"/>
</svg>